<svg width="691" height="385" viewBox="0 0 691 385" fill="none" xmlns="http://www.w3.org/2000/svg">
<line x1="25.1279" y1="0.777925" x2="194.313" y2="98.4572" stroke="white"/>
<line x1="532.004" y1="292.99" x2="690.089" y2="384.26" stroke="white"/>
<path d="M11.3203 201V189.625H15.0391C16.2734 189.625 17.2005 189.88 17.8203 190.391C18.4453 190.901 18.7578 191.656 18.7578 192.656C18.7578 193.188 18.6068 193.659 18.3047 194.07C18.0026 194.477 17.5911 194.792 17.0703 195.016C17.6849 195.188 18.1693 195.516 18.5234 196C18.8828 196.479 19.0625 197.052 19.0625 197.719C19.0625 198.74 18.7318 199.542 18.0703 200.125C17.4089 200.708 16.474 201 15.2656 201H11.3203ZM12.8203 195.68V199.773H15.2969C15.9948 199.773 16.5443 199.594 16.9453 199.234C17.3516 198.87 17.5547 198.37 17.5547 197.734C17.5547 196.365 16.8099 195.68 15.3203 195.68H12.8203ZM12.8203 194.477H15.0859C15.7422 194.477 16.2656 194.312 16.6562 193.984C17.0521 193.656 17.25 193.211 17.25 192.648C17.25 192.023 17.0677 191.57 16.7031 191.289C16.3385 191.003 15.7839 190.859 15.0391 190.859H12.8203V194.477ZM35.8103 198.031H31.0447L29.9744 201H28.4275L32.7712 189.625H34.0837L38.4353 201H36.8962L35.8103 198.031ZM31.4978 196.797H35.365L33.4275 191.477L31.4978 196.797ZM49.7691 189.625V199.773H53.6831V189.625H55.1753V199.773H59.0659V189.625H60.5659V201H48.2612V189.625H49.7691ZM92.4053 201H90.8975V190.859H85.2881V201H83.7881V189.625H92.4053V201ZM109.809 195.742H104.88V199.773H110.606V201H103.38V189.625H110.528V190.859H104.88V194.516H109.809V195.742ZM122.213 196.547V201H120.713V189.625H124.909C126.154 189.625 127.128 189.943 127.831 190.578C128.539 191.214 128.893 192.055 128.893 193.102C128.893 194.206 128.547 195.057 127.854 195.656C127.167 196.25 126.18 196.547 124.893 196.547H122.213ZM122.213 195.32H124.909C125.711 195.32 126.325 195.133 126.753 194.758C127.18 194.378 127.393 193.831 127.393 193.117C127.393 192.44 127.18 191.898 126.753 191.492C126.325 191.086 125.739 190.875 124.995 190.859H122.213V195.32ZM147.414 197.391C147.274 198.594 146.828 199.523 146.078 200.18C145.334 200.831 144.341 201.156 143.102 201.156C141.758 201.156 140.68 200.674 139.868 199.711C139.06 198.747 138.657 197.458 138.657 195.844V194.75C138.657 193.693 138.844 192.763 139.219 191.961C139.599 191.159 140.136 190.544 140.828 190.117C141.521 189.685 142.323 189.469 143.235 189.469C144.443 189.469 145.412 189.807 146.141 190.484C146.87 191.156 147.295 192.089 147.414 193.281H145.907C145.776 192.375 145.493 191.719 145.055 191.312C144.623 190.906 144.016 190.703 143.235 190.703C142.276 190.703 141.524 191.057 140.977 191.766C140.435 192.474 140.164 193.482 140.164 194.789V195.891C140.164 197.125 140.422 198.107 140.938 198.836C141.453 199.565 142.175 199.93 143.102 199.93C143.935 199.93 144.573 199.742 145.016 199.367C145.464 198.987 145.761 198.328 145.907 197.391H147.414ZM166.459 195.68C166.459 196.794 166.272 197.768 165.897 198.602C165.522 199.43 164.99 200.062 164.303 200.5C163.615 200.938 162.813 201.156 161.897 201.156C161.001 201.156 160.206 200.938 159.514 200.5C158.821 200.057 158.282 199.43 157.897 198.617C157.516 197.799 157.321 196.854 157.311 195.781V194.961C157.311 193.867 157.501 192.901 157.881 192.062C158.261 191.224 158.798 190.583 159.49 190.141C160.188 189.693 160.985 189.469 161.881 189.469C162.792 189.469 163.594 189.69 164.287 190.133C164.985 190.57 165.522 191.208 165.897 192.047C166.272 192.88 166.459 193.852 166.459 194.961V195.68ZM164.967 194.945C164.967 193.596 164.696 192.562 164.154 191.844C163.613 191.12 162.855 190.758 161.881 190.758C160.933 190.758 160.186 191.12 159.639 191.844C159.097 192.562 158.818 193.562 158.803 194.844V195.68C158.803 196.987 159.076 198.016 159.623 198.766C160.175 199.51 160.933 199.883 161.897 199.883C162.865 199.883 163.615 199.531 164.147 198.828C164.678 198.12 164.951 197.107 164.967 195.789V194.945ZM185.691 201H184.183V195.742H178.449V201H176.949V189.625H178.449V194.516H184.183V189.625H185.691V201ZM203.017 198.031H198.252L197.181 201H195.634L199.978 189.625H201.291L205.642 201H204.103L203.017 198.031ZM198.705 196.797H202.572L200.634 191.477L198.705 196.797ZM224.156 189.625V201H222.656V190.859H218.577L218.374 195.367C218.296 196.878 218.14 198.013 217.906 198.773C217.676 199.534 217.338 200.094 216.89 200.453C216.442 200.807 215.843 200.99 215.093 201H214.601V199.773L214.913 199.758C215.398 199.721 215.77 199.565 216.031 199.289C216.291 199.008 216.489 198.562 216.624 197.953C216.76 197.344 216.856 196.406 216.913 195.141L217.148 189.625H224.156ZM236.575 194.266H239.403C240.591 194.281 241.518 194.586 242.185 195.18C242.851 195.773 243.185 196.581 243.185 197.602C243.185 198.628 242.849 199.445 242.177 200.055C241.505 200.664 240.588 200.979 239.427 201H235.075V189.625H236.575V194.266ZM236.575 195.5V199.773H239.318C240.062 199.773 240.64 199.576 241.052 199.18C241.469 198.784 241.677 198.253 241.677 197.586C241.677 196.945 241.476 196.44 241.075 196.07C240.679 195.701 240.114 195.51 239.38 195.5H236.575ZM262.151 201H260.643V195.742H254.909V201H253.409V189.625H254.909V194.516H260.643V189.625H262.151V201ZM274.626 194.266H277.454C278.641 194.281 279.568 194.586 280.235 195.18C280.902 195.773 281.235 196.581 281.235 197.602C281.235 198.628 280.899 199.445 280.227 200.055C279.555 200.664 278.639 200.979 277.477 201H273.126V189.625H274.626V194.266ZM274.626 195.5V199.773H277.368C278.113 199.773 278.691 199.576 279.102 199.18C279.519 198.784 279.727 198.253 279.727 197.586C279.727 196.945 279.527 196.44 279.126 196.07C278.73 195.701 278.165 195.51 277.43 195.5H274.626ZM284.11 201H282.61V189.625H284.11V201ZM302.311 189.625H303.811V201H302.311V192.234L296.709 201H295.202V189.625H296.709V198.391L302.311 189.625ZM301.889 186.797C301.889 187.427 301.673 187.935 301.241 188.32C300.814 188.701 300.251 188.891 299.553 188.891C298.855 188.891 298.29 188.698 297.858 188.312C297.426 187.927 297.209 187.422 297.209 186.797H298.389C298.389 187.161 298.488 187.448 298.686 187.656C298.884 187.859 299.173 187.961 299.553 187.961C299.918 187.961 300.202 187.859 300.405 187.656C300.613 187.453 300.717 187.167 300.717 186.797H301.889Z" fill="white"/>
<mask id="mask0_843_1678" style="mask-type:alpha" maskUnits="userSpaceOnUse" x="283" y="150" width="375" height="146">
<path d="M283.5 150H657.5V295.5H535.5L283.5 150Z" fill="#C4C4C4"/>
</mask>
<g mask="url(#mask0_843_1678)">
<path d="M270.031 283H260.422V254.219H213.453V244.609H260.422V215.781H270.031V283ZM208.672 283H199.062V215.781H208.672V283ZM366.406 249.391C366.406 254.047 365.672 258.422 364.203 262.516C362.734 266.609 360.641 270.172 357.922 273.203C355.234 276.234 352 278.625 348.219 280.375C344.438 282.125 340.234 283 335.609 283H313.25C308.594 283 304.359 282.125 300.547 280.375C296.734 278.625 293.469 276.234 290.75 273.203C288.062 270.172 285.984 266.609 284.516 262.516C283.047 258.422 282.312 254.047 282.312 249.391C282.312 244.766 283.047 240.422 284.516 236.359C285.984 232.266 288.062 228.703 290.75 225.672C293.469 222.609 296.734 220.203 300.547 218.453C304.359 216.672 308.594 215.781 313.25 215.781H335.609C340.234 215.781 344.438 216.672 348.219 218.453C352 220.203 355.234 222.609 357.922 225.672C360.641 228.703 362.734 232.266 364.203 236.359C365.672 240.422 366.406 244.766 366.406 249.391ZM356.797 249.391C356.797 246.078 356.312 242.969 355.344 240.062C354.375 237.156 352.969 234.625 351.125 232.469C349.312 230.281 347.094 228.562 344.469 227.312C341.875 226.031 338.922 225.391 335.609 225.391H313.25C309.938 225.391 306.953 226.031 304.297 227.312C301.672 228.562 299.438 230.281 297.594 232.469C295.781 234.625 294.375 237.156 293.375 240.062C292.406 242.969 291.922 246.078 291.922 249.391C291.922 252.703 292.406 255.828 293.375 258.766C294.375 261.672 295.781 264.219 297.594 266.406C299.438 268.562 301.672 270.266 304.297 271.516C306.953 272.766 309.938 273.391 313.25 273.391H335.609C338.922 273.391 341.875 272.766 344.469 271.516C347.094 270.266 349.312 268.562 351.125 266.406C352.969 264.219 354.375 261.672 355.344 258.766C356.312 255.828 356.797 252.703 356.797 249.391ZM450.688 215.781L450.594 249.391C450.594 252.516 450.188 255.516 449.375 258.391C448.594 261.234 447.469 263.906 446 266.406C444.562 268.875 442.812 271.141 440.75 273.203C438.719 275.234 436.453 276.984 433.953 278.453C431.484 279.891 428.828 281.016 425.984 281.828C423.141 282.609 420.172 283 417.078 283H410C406.906 283 403.922 282.609 401.047 281.828C398.203 281.016 395.531 279.875 393.031 278.406C390.562 276.938 388.312 275.188 386.281 273.156C384.25 271.094 382.5 268.828 381.031 266.359C379.594 263.859 378.469 261.188 377.656 258.344C376.875 255.469 376.484 252.484 376.484 249.391V215.781H386.094V249.391C386.094 252.703 386.719 255.828 387.969 258.766C389.219 261.672 390.922 264.219 393.078 266.406C395.266 268.562 397.812 270.266 400.719 271.516C403.625 272.766 406.719 273.391 410 273.391H417.078C420.391 273.391 423.5 272.766 426.406 271.516C429.312 270.266 431.844 268.562 434 266.406C436.156 264.219 437.859 261.672 439.109 258.766C440.359 255.828 440.984 252.703 440.984 249.391V215.781H450.594H450.688ZM538.766 263.781C538.766 266.469 538.266 268.984 537.266 271.328C536.266 273.641 534.891 275.672 533.141 277.422C531.422 279.141 529.391 280.5 527.047 281.5C524.734 282.5 522.25 283 519.594 283H461.188V273.391H519.594C520.938 273.391 522.188 273.141 523.344 272.641C524.5 272.141 525.5 271.453 526.344 270.578C527.219 269.703 527.906 268.688 528.406 267.531C528.906 266.344 529.156 265.094 529.156 263.781C529.156 262.469 528.906 261.234 528.406 260.078C527.906 258.922 527.219 257.906 526.344 257.031C525.5 256.156 524.5 255.469 523.344 254.969C522.188 254.469 520.938 254.219 519.594 254.219H480.406C477.781 254.219 475.297 253.719 472.953 252.719C470.609 251.719 468.562 250.359 466.812 248.641C465.094 246.891 463.719 244.844 462.688 242.5C461.688 240.156 461.188 237.656 461.188 235C461.188 232.375 461.688 229.891 462.688 227.547C463.719 225.203 465.094 223.172 466.812 221.453C468.562 219.703 470.609 218.328 472.953 217.328C475.297 216.297 477.781 215.781 480.406 215.781H533.984V225.391H480.406C479.094 225.391 477.844 225.641 476.656 226.141C475.5 226.641 474.484 227.328 473.609 228.203C472.734 229.078 472.047 230.109 471.547 231.297C471.047 232.453 470.797 233.688 470.797 235C470.797 236.312 471.047 237.562 471.547 238.75C472.047 239.906 472.734 240.922 473.609 241.797C474.484 242.672 475.5 243.359 476.656 243.859C477.844 244.359 479.094 244.609 480.406 244.609H519.594C522.25 244.609 524.734 245.125 527.047 246.156C529.391 247.156 531.422 248.531 533.141 250.281C534.891 252 536.266 254.031 537.266 256.375C538.266 258.688 538.766 261.156 538.766 263.781ZM619.578 283H550.062V215.781H619.578V225.391H559.672V273.391H619.578V283ZM611.422 254.219H564.453V244.609H611.422V254.219Z" fill="white"/>
</g>
<mask id="mask1_843_1678" style="mask-type:alpha" maskUnits="userSpaceOnUse" x="185" y="188" width="393" height="146">
<path d="M577.5 333.5L185 333.5V188H325L577.5 333.5Z" fill="#C4C4C4"/>
</mask>
<g mask="url(#mask1_843_1678)">
<path d="M270.031 283H260.422V254.219H213.453V244.609H260.422V215.781H270.031V283ZM208.672 283H199.062V215.781H208.672V283ZM366.406 249.391C366.406 254.047 365.672 258.422 364.203 262.516C362.734 266.609 360.641 270.172 357.922 273.203C355.234 276.234 352 278.625 348.219 280.375C344.438 282.125 340.234 283 335.609 283H313.25C308.594 283 304.359 282.125 300.547 280.375C296.734 278.625 293.469 276.234 290.75 273.203C288.062 270.172 285.984 266.609 284.516 262.516C283.047 258.422 282.312 254.047 282.312 249.391C282.312 244.766 283.047 240.422 284.516 236.359C285.984 232.266 288.062 228.703 290.75 225.672C293.469 222.609 296.734 220.203 300.547 218.453C304.359 216.672 308.594 215.781 313.25 215.781H335.609C340.234 215.781 344.438 216.672 348.219 218.453C352 220.203 355.234 222.609 357.922 225.672C360.641 228.703 362.734 232.266 364.203 236.359C365.672 240.422 366.406 244.766 366.406 249.391ZM356.797 249.391C356.797 246.078 356.312 242.969 355.344 240.062C354.375 237.156 352.969 234.625 351.125 232.469C349.312 230.281 347.094 228.562 344.469 227.312C341.875 226.031 338.922 225.391 335.609 225.391H313.25C309.938 225.391 306.953 226.031 304.297 227.312C301.672 228.562 299.438 230.281 297.594 232.469C295.781 234.625 294.375 237.156 293.375 240.062C292.406 242.969 291.922 246.078 291.922 249.391C291.922 252.703 292.406 255.828 293.375 258.766C294.375 261.672 295.781 264.219 297.594 266.406C299.438 268.562 301.672 270.266 304.297 271.516C306.953 272.766 309.938 273.391 313.25 273.391H335.609C338.922 273.391 341.875 272.766 344.469 271.516C347.094 270.266 349.312 268.562 351.125 266.406C352.969 264.219 354.375 261.672 355.344 258.766C356.312 255.828 356.797 252.703 356.797 249.391ZM450.688 215.781L450.594 249.391C450.594 252.516 450.188 255.516 449.375 258.391C448.594 261.234 447.469 263.906 446 266.406C444.562 268.875 442.812 271.141 440.75 273.203C438.719 275.234 436.453 276.984 433.953 278.453C431.484 279.891 428.828 281.016 425.984 281.828C423.141 282.609 420.172 283 417.078 283H410C406.906 283 403.922 282.609 401.047 281.828C398.203 281.016 395.531 279.875 393.031 278.406C390.562 276.938 388.312 275.188 386.281 273.156C384.25 271.094 382.5 268.828 381.031 266.359C379.594 263.859 378.469 261.188 377.656 258.344C376.875 255.469 376.484 252.484 376.484 249.391V215.781H386.094V249.391C386.094 252.703 386.719 255.828 387.969 258.766C389.219 261.672 390.922 264.219 393.078 266.406C395.266 268.562 397.812 270.266 400.719 271.516C403.625 272.766 406.719 273.391 410 273.391H417.078C420.391 273.391 423.5 272.766 426.406 271.516C429.312 270.266 431.844 268.562 434 266.406C436.156 264.219 437.859 261.672 439.109 258.766C440.359 255.828 440.984 252.703 440.984 249.391V215.781H450.594H450.688ZM538.766 263.781C538.766 266.469 538.266 268.984 537.266 271.328C536.266 273.641 534.891 275.672 533.141 277.422C531.422 279.141 529.391 280.5 527.047 281.5C524.734 282.5 522.25 283 519.594 283H461.188V273.391H519.594C520.938 273.391 522.188 273.141 523.344 272.641C524.5 272.141 525.5 271.453 526.344 270.578C527.219 269.703 527.906 268.688 528.406 267.531C528.906 266.344 529.156 265.094 529.156 263.781C529.156 262.469 528.906 261.234 528.406 260.078C527.906 258.922 527.219 257.906 526.344 257.031C525.5 256.156 524.5 255.469 523.344 254.969C522.188 254.469 520.938 254.219 519.594 254.219H480.406C477.781 254.219 475.297 253.719 472.953 252.719C470.609 251.719 468.562 250.359 466.812 248.641C465.094 246.891 463.719 244.844 462.688 242.5C461.688 240.156 461.188 237.656 461.188 235C461.188 232.375 461.688 229.891 462.688 227.547C463.719 225.203 465.094 223.172 466.812 221.453C468.562 219.703 470.609 218.328 472.953 217.328C475.297 216.297 477.781 215.781 480.406 215.781H533.984V225.391H480.406C479.094 225.391 477.844 225.641 476.656 226.141C475.5 226.641 474.484 227.328 473.609 228.203C472.734 229.078 472.047 230.109 471.547 231.297C471.047 232.453 470.797 233.688 470.797 235C470.797 236.312 471.047 237.562 471.547 238.75C472.047 239.906 472.734 240.922 473.609 241.797C474.484 242.672 475.5 243.359 476.656 243.859C477.844 244.359 479.094 244.609 480.406 244.609H519.594C522.25 244.609 524.734 245.125 527.047 246.156C529.391 247.156 531.422 248.531 533.141 250.281C534.891 252 536.266 254.031 537.266 256.375C538.266 258.688 538.766 261.156 538.766 263.781ZM619.578 283H550.062V215.781H619.578V225.391H559.672V273.391H619.578V283ZM611.422 254.219H564.453V244.609H611.422V254.219Z" fill="white"/>
</g>
<mask id="mask2_843_1678" style="mask-type:alpha" maskUnits="userSpaceOnUse" x="0" y="85" width="399" height="146">
<path d="M398.5 230.5L0 230.5V85H146L398.5 230.5Z" fill="#C4C4C4"/>
</mask>
<g mask="url(#mask2_843_1678)">
<path d="M91.2812 141.391C91.2812 146.047 90.5312 150.422 89.0312 154.516C87.5625 158.609 85.4688 162.172 82.75 165.203C80.0312 168.234 76.7656 170.625 72.9531 172.375C69.1719 174.125 64.9688 175 60.3438 175H26.4531V165.391H60.3438C63.6562 165.391 66.625 164.766 69.25 163.516C71.9062 162.266 74.1406 160.562 75.9531 158.406C77.7969 156.219 79.2031 153.672 80.1719 150.766C81.1719 147.828 81.6719 144.703 81.6719 141.391C81.6719 138.078 81.1719 134.969 80.1719 132.062C79.2031 129.156 77.7969 126.625 75.9531 124.469C74.1406 122.281 71.9062 120.562 69.25 119.312C66.625 118.031 63.6562 117.391 60.3438 117.391H21.6719V175H12.0625V107.781H60.3438C64.9688 107.781 69.1719 108.672 72.9531 110.453C76.7656 112.203 80.0312 114.609 82.75 117.672C85.4688 120.703 87.5625 124.266 89.0312 128.359C90.5312 132.422 91.2812 136.766 91.2812 141.391ZM181.141 175H168.156L148 155.781H118.562V146.312H157.141C159.141 146.312 161.016 145.938 162.766 145.188C164.516 144.406 166.031 143.359 167.312 142.047C168.625 140.734 169.656 139.203 170.406 137.453C171.156 135.672 171.531 133.781 171.531 131.781C171.531 129.781 171.156 127.906 170.406 126.156C169.656 124.406 168.625 122.891 167.312 121.609C166.031 120.297 164.516 119.266 162.766 118.516C161.016 117.766 159.141 117.391 157.141 117.391H113.172V175H103.562V107.781H157.141C160.453 107.781 163.562 108.422 166.469 109.703C169.375 110.953 171.906 112.672 174.062 114.859C176.25 117.016 177.969 119.547 179.219 122.453C180.5 125.359 181.141 128.469 181.141 131.781C181.141 134.781 180.625 137.625 179.594 140.312C178.562 142.969 177.141 145.359 175.328 147.484C173.516 149.578 171.375 151.328 168.906 152.734C166.469 154.109 163.828 155.031 160.984 155.5L181.141 175ZM262.984 175H193.469V107.781H262.984V117.391H203.078V165.391H262.984V175ZM254.828 146.219H207.859V136.609H254.828V146.219ZM351.344 175H341.734V155.781H288.109V146.219H341.734V117.391H307.281C304 117.391 300.906 118.031 298 119.312C295.094 120.562 292.562 122.281 290.406 124.469C288.25 126.625 286.531 129.156 285.25 132.062C284 134.969 283.375 138.078 283.375 141.391V175H273.766V141.391C273.766 138.297 274.156 135.328 274.938 132.484C275.75 129.609 276.875 126.938 278.312 124.469C279.781 121.969 281.531 119.703 283.562 117.672C285.625 115.609 287.891 113.844 290.359 112.375C292.859 110.906 295.531 109.781 298.375 109C301.219 108.188 304.188 107.781 307.281 107.781H351.344V175ZM415.844 175H406.234V141.391C406.234 138.078 405.609 134.969 404.359 132.062C403.109 129.156 401.391 126.625 399.203 124.469C397.047 122.281 394.5 120.562 391.562 119.312C388.656 118.031 385.547 117.391 382.234 117.391H377.078V175H367.469V107.781H382.234C385.297 107.781 388.234 108.188 391.047 109C393.891 109.781 396.547 110.891 399.016 112.328C401.484 113.766 403.734 115.484 405.766 117.484C407.797 119.484 409.562 121.703 411.062 124.141C412.531 121.703 414.281 119.484 416.312 117.484C418.344 115.484 420.594 113.766 423.062 112.328C425.531 110.891 428.172 109.781 430.984 109C433.828 108.188 436.781 107.781 439.844 107.781H454.656V175H445.047V117.391H439.844C436.531 117.391 433.422 118.031 430.516 119.312C427.609 120.562 425.062 122.281 422.875 124.469C420.719 126.625 419 129.156 417.719 132.062C416.469 134.969 415.844 138.078 415.844 141.391V175Z" fill="white"/>
</g>
<mask id="mask3_843_1678" style="mask-type:alpha" maskUnits="userSpaceOnUse" x="147" y="71" width="367" height="146">
<path d="M147 71H514V216.5H398.5L147 71Z" fill="#C4C4C4"/>
</mask>
<g mask="url(#mask3_843_1678)">
<path d="M91.2812 141.391C91.2812 146.047 90.5312 150.422 89.0312 154.516C87.5625 158.609 85.4688 162.172 82.75 165.203C80.0312 168.234 76.7656 170.625 72.9531 172.375C69.1719 174.125 64.9688 175 60.3438 175H26.4531V165.391H60.3438C63.6562 165.391 66.625 164.766 69.25 163.516C71.9062 162.266 74.1406 160.562 75.9531 158.406C77.7969 156.219 79.2031 153.672 80.1719 150.766C81.1719 147.828 81.6719 144.703 81.6719 141.391C81.6719 138.078 81.1719 134.969 80.1719 132.062C79.2031 129.156 77.7969 126.625 75.9531 124.469C74.1406 122.281 71.9062 120.562 69.25 119.312C66.625 118.031 63.6562 117.391 60.3438 117.391H21.6719V175H12.0625V107.781H60.3438C64.9688 107.781 69.1719 108.672 72.9531 110.453C76.7656 112.203 80.0312 114.609 82.75 117.672C85.4688 120.703 87.5625 124.266 89.0312 128.359C90.5312 132.422 91.2812 136.766 91.2812 141.391ZM181.141 175H168.156L148 155.781H118.562V146.312H157.141C159.141 146.312 161.016 145.938 162.766 145.188C164.516 144.406 166.031 143.359 167.312 142.047C168.625 140.734 169.656 139.203 170.406 137.453C171.156 135.672 171.531 133.781 171.531 131.781C171.531 129.781 171.156 127.906 170.406 126.156C169.656 124.406 168.625 122.891 167.312 121.609C166.031 120.297 164.516 119.266 162.766 118.516C161.016 117.766 159.141 117.391 157.141 117.391H113.172V175H103.562V107.781H157.141C160.453 107.781 163.562 108.422 166.469 109.703C169.375 110.953 171.906 112.672 174.062 114.859C176.25 117.016 177.969 119.547 179.219 122.453C180.5 125.359 181.141 128.469 181.141 131.781C181.141 134.781 180.625 137.625 179.594 140.312C178.562 142.969 177.141 145.359 175.328 147.484C173.516 149.578 171.375 151.328 168.906 152.734C166.469 154.109 163.828 155.031 160.984 155.5L181.141 175ZM262.984 175H193.469V107.781H262.984V117.391H203.078V165.391H262.984V175ZM254.828 146.219H207.859V136.609H254.828V146.219ZM351.344 175H341.734V155.781H288.109V146.219H341.734V117.391H307.281C304 117.391 300.906 118.031 298 119.312C295.094 120.562 292.562 122.281 290.406 124.469C288.25 126.625 286.531 129.156 285.25 132.062C284 134.969 283.375 138.078 283.375 141.391V175H273.766V141.391C273.766 138.297 274.156 135.328 274.938 132.484C275.75 129.609 276.875 126.938 278.312 124.469C279.781 121.969 281.531 119.703 283.562 117.672C285.625 115.609 287.891 113.844 290.359 112.375C292.859 110.906 295.531 109.781 298.375 109C301.219 108.188 304.188 107.781 307.281 107.781H351.344V175ZM415.844 175H406.234V141.391C406.234 138.078 405.609 134.969 404.359 132.062C403.109 129.156 401.391 126.625 399.203 124.469C397.047 122.281 394.5 120.562 391.562 119.312C388.656 118.031 385.547 117.391 382.234 117.391H377.078V175H367.469V107.781H382.234C385.297 107.781 388.234 108.188 391.047 109C393.891 109.781 396.547 110.891 399.016 112.328C401.484 113.766 403.734 115.484 405.766 117.484C407.797 119.484 409.562 121.703 411.062 124.141C412.531 121.703 414.281 119.484 416.312 117.484C418.344 115.484 420.594 113.766 423.062 112.328C425.531 110.891 428.172 109.781 430.984 109C433.828 108.188 436.781 107.781 439.844 107.781H454.656V175H445.047V117.391H439.844C436.531 117.391 433.422 118.031 430.516 119.312C427.609 120.562 425.062 122.281 422.875 124.469C420.719 126.625 419 129.156 417.719 132.062C416.469 134.969 415.844 138.078 415.844 141.391V175Z" fill="white"/>
</g>
</svg>
